<svg xmlns="http://www.w3.org/2000/svg" viewBox="0 0 478.02 43.65"><defs><style>.a{fill:#fff;}</style></defs><path class="a" d="M401,503.22h3l6.93,16.34,7.22-16.34h0.5l7.22,16.34,7.07-16.34h3l-9.76,22.57h-0.57l-7.22-16.2-7.22,16.2h-0.57Z" transform="translate(-400.99 -490.98)"/><path class="a" d="M440.32,493.95a2.42,2.42,0,1,1-1.7.71A2.3,2.3,0,0,1,440.32,493.95Zm-1.41,9.27h2.9v22.57h-2.9V503.22Z" transform="translate(-400.99 -490.98)"/><path class="a" d="M469.68,507.89l-2.33,1.41a9.65,9.65,0,0,0-8.14-4,9.45,9.45,0,0,0-6.86,2.62,8.5,8.5,0,0,0-2.69,6.44,9.28,9.28,0,0,0,1.27,4.67,9.39,9.39,0,0,0,3.47,3.4,9.61,9.61,0,0,0,4.88,1.2,10,10,0,0,0,8.14-4l2.33,1.49a10.56,10.56,0,0,1-4.32,3.75,13.65,13.65,0,0,1-6.23,1.34,12.23,12.23,0,0,1-8.84-3.4,11.13,11.13,0,0,1-3.54-8.28,12,12,0,0,1,1.63-6.08,11.74,11.74,0,0,1,4.53-4.39,13.13,13.13,0,0,1,6.44-1.56,12.84,12.84,0,0,1,4.32.71,13.76,13.76,0,0,1,3.54,1.77A10.42,10.42,0,0,1,469.68,507.89Z" transform="translate(-400.99 -490.98)"/><path class="a" d="M475.27,494.52h2.9v12.73a12.64,12.64,0,0,1,3.89-3.47,9.23,9.23,0,0,1,4.6-1.13,7.85,7.85,0,0,1,4.46,1.27,7.76,7.76,0,0,1,2.9,3.47,18.09,18.09,0,0,1,.92,6.79v11.6H492V515a28.5,28.5,0,0,0-.28-5.24,5.84,5.84,0,0,0-2-3.4,5.65,5.65,0,0,0-3.75-1.13,7.06,7.06,0,0,0-4.74,1.77,8.15,8.15,0,0,0-2.76,4.32,29.6,29.6,0,0,0-.42,6.15v8.28h-2.9V494.52h0.07Z" transform="translate(-400.99 -490.98)"/><path class="a" d="M503.71,494.8h2.9v8.42h4.6v2.48h-4.6v20h-2.9v-20h-4v-2.48h4V494.8Z" transform="translate(-400.99 -490.98)"/><path class="a" d="M534.56,518.29l2.48,1.27a13.28,13.28,0,0,1-2.76,3.82,10.94,10.94,0,0,1-3.54,2.19,12.81,12.81,0,0,1-4.46.78,10.76,10.76,0,0,1-8.63-3.61,12.38,12.38,0,0,1-3.11-8.21,12.06,12.06,0,0,1,2.62-7.64,10.77,10.77,0,0,1,8.91-4.24,11.14,11.14,0,0,1,9.2,4.39,12,12,0,0,1,2.48,7.71h-20.3a9.55,9.55,0,0,0,2.48,6.44,8,8,0,0,0,6,2.55,10.58,10.58,0,0,0,3.33-.57,10.38,10.38,0,0,0,2.76-1.56A15.52,15.52,0,0,0,534.56,518.29Zm0-6.08a8.47,8.47,0,0,0-1.7-3.68,7.55,7.55,0,0,0-3-2.26,8.86,8.86,0,0,0-3.82-.85,8.46,8.46,0,0,0-5.73,2.12,9.89,9.89,0,0,0-2.62,4.67h16.84Z" transform="translate(-400.99 -490.98)"/><path class="a" d="M542.05,503.22h3v3.33a11.08,11.08,0,0,1,2.83-2.9,4.87,4.87,0,0,1,5.59-.21L552,505.91a4,4,0,0,0-1.56-.42,4.36,4.36,0,0,0-2.83,1.2,7.62,7.62,0,0,0-2.05,3.68,35.2,35.2,0,0,0-.57,7.78v7.64h-2.9V503.22Z" transform="translate(-400.99 -490.98)"/><path class="a" d="M555.5,494.52h2.9v31.27h-2.9V494.52Z" transform="translate(-400.99 -490.98)"/><path class="a" d="M575.09,502.65a11.25,11.25,0,0,1,8.63,3.75,12.07,12.07,0,0,1-.21,16.41,12,12,0,0,1-17,0,11.72,11.72,0,0,1-3.33-8.28,11.94,11.94,0,0,1,3.11-8.14A11.51,11.51,0,0,1,575.09,502.65Zm0,2.83a8.52,8.52,0,0,0-6.23,2.69,8.81,8.81,0,0,0-2.62,6.44,9,9,0,0,0,1.2,4.53,9,9,0,0,0,12.1,3.25,8.29,8.29,0,0,0,3.18-3.25,9.22,9.22,0,0,0,1.2-4.53,8.7,8.7,0,0,0-2.62-6.44A8.52,8.52,0,0,0,575.09,505.48Z" transform="translate(-400.99 -490.98)"/><path class="a" d="M590.09,503.22h3.11l7.57,16.41,7.5-16.41h3.11l-10.33,22.57h-0.57Z" transform="translate(-400.99 -490.98)"/><path class="a" d="M626.38,502.65A11.25,11.25,0,0,1,635,506.4a12.07,12.07,0,0,1-.21,16.41,12,12,0,0,1-17,0,11.72,11.72,0,0,1-3.33-8.28,11.94,11.94,0,0,1,3.11-8.14A11.51,11.51,0,0,1,626.38,502.65Zm0,2.83a8.52,8.52,0,0,0-6.23,2.69,8.81,8.81,0,0,0-2.62,6.44,9,9,0,0,0,1.2,4.53,9,9,0,0,0,12.1,3.25,8.29,8.29,0,0,0,3.18-3.25,9.22,9.22,0,0,0,1.2-4.53,8.7,8.7,0,0,0-2.62-6.44A8.52,8.52,0,0,0,626.38,505.48Z" transform="translate(-400.99 -490.98)"/><path class="a" d="M659.84,503.22h5.66v19.31c0,3.82-.78,6.65-2.33,8.42-2.05,2.41-5.16,3.68-9.34,3.68a16,16,0,0,1-5.59-.85,10.65,10.65,0,0,1-3.82-2.41,10.79,10.79,0,0,1-2.33-3.89h6.23a4.89,4.89,0,0,0,2.12,1.41,9.9,9.9,0,0,0,3.11.5,7.93,7.93,0,0,0,3.68-.71,4.57,4.57,0,0,0,2-1.84,8.63,8.63,0,0,0,.57-3.82,9.39,9.39,0,0,1-3.11,2.12,10.7,10.7,0,0,1-11.32-2.62,12.71,12.71,0,0,1,.21-16.91,9.78,9.78,0,0,1,7.15-3,9.21,9.21,0,0,1,3.68.71,12.45,12.45,0,0,1,3.47,2.33v-2.48h0ZM654,507.89a5.76,5.76,0,0,0-4.39,1.77,6.36,6.36,0,0,0-1.77,4.53,6.13,6.13,0,0,0,1.77,4.6,6,6,0,0,0,4.46,1.77,5.61,5.61,0,0,0,4.32-1.77,7.08,7.08,0,0,0,0-9.2A5.71,5.71,0,0,0,654,507.89Z" transform="translate(-400.99 -490.98)"/><path class="a" d="M668.69,503.22h5.8l5.87,14.15,6.44-14.15h5.8L678.45,534h-5.87l4.67-9.9Z" transform="translate(-400.99 -490.98)"/><path class="a" d="M695.78,503.22h5.66v2.62a10.5,10.5,0,0,1,3.25-2.41,8.91,8.91,0,0,1,3.89-.78,7.06,7.06,0,0,1,3.82,1.06,7.71,7.71,0,0,1,2.76,3,9.09,9.09,0,0,1,3.33-3,8.86,8.86,0,0,1,4.32-1.06,7.62,7.62,0,0,1,4.24,1.13,6.43,6.43,0,0,1,2.62,2.9,16.64,16.64,0,0,1,.78,5.87v13.23h-5.87V514.32c0-2.55-.28-4.32-0.92-5.16a3.33,3.33,0,0,0-2.83-1.34,4.29,4.29,0,0,0-2.62.85,4.94,4.94,0,0,0-1.7,2.26,14.47,14.47,0,0,0-.57,4.67v10.19h-5.73V514.89a16.07,16.07,0,0,0-.42-4.39,4.35,4.35,0,0,0-1.34-2.05,3.23,3.23,0,0,0-2.19-.64,4.24,4.24,0,0,0-2.55.85A4.79,4.79,0,0,0,702,511a15.29,15.29,0,0,0-.57,4.74v10h-5.66V503.22h0Z" transform="translate(-400.99 -490.98)"/><path class="a" d="M735.68,503.22h5.66v2.33a15,15,0,0,1,3.47-2.26,8.52,8.52,0,0,1,3.18-.64,7.63,7.63,0,0,1,5.66,2.33c1.34,1.34,2,3.25,2,5.87v14.93H750v-9.9a27.83,27.83,0,0,0-.35-5.38,3.43,3.43,0,0,0-3.47-2.76,4.23,4.23,0,0,0-3,1.13,5.8,5.8,0,0,0-1.7,3.18,27.36,27.36,0,0,0-.28,4.6v9.06h-5.66v-22.5h0.07Z" transform="translate(-400.99 -490.98)"/><path class="a" d="M777.78,503.22h5.66v22.57h-5.66v-2.41a10.3,10.3,0,0,1-3.33,2.26,8.88,8.88,0,0,1-3.61.71,10.07,10.07,0,0,1-7.57-3.4,11.88,11.88,0,0,1-3.18-8.42A12.13,12.13,0,0,1,763.2,506a10,10,0,0,1,11.32-2.55,10.19,10.19,0,0,1,3.33,2.33v-2.55h-0.07Zm-5.94,4.6a5.93,5.93,0,0,0-4.39,1.84,6.76,6.76,0,0,0-1.77,4.74,6.63,6.63,0,0,0,1.77,4.81,5.69,5.69,0,0,0,4.32,1.91,5.82,5.82,0,0,0,4.39-1.84,6.87,6.87,0,0,0,1.77-4.88,6.35,6.35,0,0,0-1.77-4.74A5.66,5.66,0,0,0,771.83,507.82ZM773.39,491h6.72l-7.57,8.14h-4.1Z" transform="translate(-400.99 -490.98)"/><path class="a" d="M788.25,503.22h17.26L795.39,521h9.55v4.81H786.69L796.88,508h-8.63v-4.81Z" transform="translate(-400.99 -490.98)"/><path class="a" d="M810.88,493.95a3.47,3.47,0,0,1,2.55,1.06,3.52,3.52,0,0,1,1.06,2.62,3.6,3.6,0,0,1-6.15,2.55,3.63,3.63,0,0,1-1.06-2.62A3.62,3.62,0,0,1,810.88,493.95Zm-2.83,9.27h5.66v22.57h-5.66V503.22Z" transform="translate(-400.99 -490.98)"/><path class="a" d="M818.88,503.22h5.73v10.89a15,15,0,0,0,.42,4.39,3.9,3.9,0,0,0,1.41,1.91,4.21,4.21,0,0,0,2.41.71,3.87,3.87,0,0,0,2.41-.71,4.33,4.33,0,0,0,1.49-2,16.24,16.24,0,0,0,.35-4.17v-11h5.66v9.55c0,4-.28,6.65-0.92,8.06a9.62,9.62,0,0,1-3.33,4.1,9.74,9.74,0,0,1-5.66,1.41,10.41,10.41,0,0,1-6-1.63,8.49,8.49,0,0,1-3.25-4.6,28.7,28.7,0,0,1-.64-7.43v-9.48h-0.07Z" transform="translate(-400.99 -490.98)"/><path class="a" d="M844.35,503.22H850v2.62a10.5,10.5,0,0,1,3.25-2.41,8.91,8.91,0,0,1,3.89-.78,7.06,7.06,0,0,1,3.82,1.06,7.71,7.71,0,0,1,2.76,3,9.09,9.09,0,0,1,3.33-3,8.86,8.86,0,0,1,4.32-1.06,7.62,7.62,0,0,1,4.24,1.13,6.43,6.43,0,0,1,2.62,2.9,16.64,16.64,0,0,1,.78,5.87v13.23h-5.87V514.32c0-2.55-.28-4.32-0.92-5.16a3.33,3.33,0,0,0-2.83-1.34,4.29,4.29,0,0,0-2.62.85,4.94,4.94,0,0,0-1.7,2.26,14.47,14.47,0,0,0-.57,4.67v10.19h-5.73V514.89a16.07,16.07,0,0,0-.42-4.39,4.35,4.35,0,0,0-1.34-2.05,3.23,3.23,0,0,0-2.19-.64,4.24,4.24,0,0,0-2.55.85,4.79,4.79,0,0,0-1.7,2.33,15.29,15.29,0,0,0-.57,4.74v10h-5.66V503.22h0Z" transform="translate(-400.99 -490.98)"/></svg>